# 3ds Max Wavefront OBJ Exporter v0.97b - (c)2007 guruware
# File Created: 23.11.2019 23:29:11

mtllib bag.mtl

#
# object CementBagLow_polySurface1
#

v  -5.4338 -0.0147 7.7688
v  -3.6825 -0.0167 8.0806
v  -3.5909 1.1867 7.9176
v  -5.2217 1.1569 7.6611
v  -5.1850 0.9658 -7.6687
v  -3.5642 0.9208 -7.9244
v  -3.7010 -0.2778 -8.1188
v  -5.4458 -0.2126 -7.7715
v  -4.9046 1.6913 -6.2806
v  -3.5539 1.9020 -6.1723
v  -3.5358 1.5815 -7.3290
v  -4.9764 1.5813 -7.3230
v  -5.3837 -0.1496 -6.8809
v  -5.1998 1.0197 -6.7018
v  -3.5650 1.8214 7.2879
v  -5.0018 1.7658 7.2909
v  -5.5694 -1.2511 7.4790
v  -3.8989 -1.4980 7.5817
v  -3.8663 -1.7776 -7.5868
v  -5.5639 -1.4679 -7.4780
v  -5.2838 -2.1713 -7.1954
v  -3.9610 -2.3540 -7.2338
v  -3.8596 -2.4977 -6.3742
v  -5.1017 -2.2062 -6.4352
v  -5.3074 -1.3791 -6.7445
v  -5.2757 -1.9245 7.1847
v  -4.0110 -2.0754 7.2122
v  -4.8355 2.0984 3.7262
v  -3.6492 2.2354 3.6068
v  -3.2595 2.3119 0.2590
v  -4.7266 2.0501 0.2780
v  -5.2248 1.3512 4.0306
v  -5.2071 1.3008 0.3041
v  -5.3134 0.0318 0.3086
v  -5.3667 0.1353 4.1727
v  -5.1795 -1.3191 0.3013
v  -5.2528 -1.1360 4.0472
v  -4.7095 -2.1859 0.2845
v  -4.8390 -2.0099 3.7494
v  -3.5884 -2.4821 0.2777
v  -3.7088 -2.2688 3.6305
v  -4.9245 1.8914 6.2929
v  -3.5788 2.0393 6.1216
v  -5.2080 1.2127 6.7399
v  -5.3849 0.0644 6.9303
v  -5.3218 -1.1462 6.7832
v  -5.1236 -1.9577 6.4305
v  -3.8902 -2.2152 6.3226
v  -3.2158 2.1737 -3.2745
v  -4.7212 1.9093 -3.3959
v  -5.1880 1.1624 -3.6584
v  -5.3387 -0.0527 -3.8224
v  -5.2260 -1.3431 -3.7131
v  -4.8078 -2.2155 -3.4687
v  -3.6885 -2.4779 -3.4016
v  0.0931 2.2759 3.5990
v  0.2837 2.4323 0.2272
v  0.2457 2.2954 -3.3300
v  0.0572 1.9235 -6.2551
v  0.0243 1.5052 -7.2860
v  0.0165 0.9247 -7.9288
v  0.0082 -0.3121 -8.2553
v  0.0194 -1.7316 -7.9335
v  0.0314 -2.4301 -7.2981
v  0.0813 -2.5700 -6.4186
v  0.2342 -2.5510 -3.4362
v  0.3362 -2.5662 0.2504
v  0.2204 -2.3845 3.5807
v  0.0643 -2.2822 6.2809
v  0.0072 -2.1095 7.1854
v  -0.0097 -1.3965 7.8105
v  -0.0069 0.0777 8.2553
v  0.0045 1.2122 7.8858
v  0.0188 1.6032 7.0969
v  0.0219 1.9265 6.0500
v  5.4657 0.1242 7.6923
v  5.2197 1.2837 7.5835
v  3.5728 1.2687 7.8702
v  3.6729 0.0878 8.0608
v  5.1694 1.0800 -7.6971
v  5.4726 -0.0951 -7.8362
v  3.6928 -0.1946 -8.1515
v  3.5820 1.0168 -7.9554
v  4.8629 1.8106 -6.2770
v  4.9383 1.6663 -7.3046
v  3.5256 1.7049 -7.3630
v  3.5915 2.0553 -6.2092
v  5.2186 1.2138 -6.7507
v  5.4062 0.0278 -6.9445
v  4.9998 1.8783 7.2150
v  3.5472 1.8326 7.2010
v  5.5601 -1.1119 7.3931
v  3.9055 -1.4124 7.5127
v  5.5695 -1.3655 -7.5420
v  3.8739 -1.6842 -7.6465
v  5.3051 -2.0736 -7.2615
v  5.1520 -2.0577 -6.5020
v  3.9584 -2.3748 -6.4283
v  4.0081 -2.2774 -7.2896
v  5.3396 -1.2204 -6.8115
v  5.2766 -1.7960 7.1009
v  4.0216 -1.9777 7.1518
v  4.8772 2.3448 3.6578
v  4.9141 2.4923 0.2480
v  3.7564 2.5700 0.2208
v  3.7693 2.4574 3.5655
v  5.2579 1.5982 3.9459
v  5.3159 1.7383 0.2624
v  5.4361 0.4267 0.2531
v  5.4170 0.3833 4.0785
v  5.3560 -0.9519 0.2385
v  5.3383 -0.9013 3.9522
v  4.9880 -1.7922 3.6610
v  4.9751 -1.8439 0.2254
v  3.9970 -2.0975 3.5630
v  4.0456 -2.2110 0.2333
v  3.6010 2.2007 6.0724
v  4.9292 2.0167 6.2109
v  5.2128 1.3538 6.6532
v  5.3916 0.2150 6.8390
v  5.3361 -0.9984 6.6854
v  5.1530 -1.8213 6.3407
v  3.9596 -2.1132 6.2529
v  4.8660 2.2987 -3.4887
v  3.6496 2.4555 -3.3995
v  5.2567 1.5404 -3.7532
v  5.4079 0.2854 -3.8854
v  5.3263 -1.0315 -3.7745
v  4.9695 -1.9250 -3.5275
v  3.9897 -2.2435 -3.4465
# 130 vertices

vn -0.7949 0.0339 0.6058
vn -0.0942 -0.0529 0.9941
vn -0.0608 0.4770 0.8768
vn -0.7109 0.4226 0.5622
vn -0.6992 0.4245 -0.5752
vn -0.0614 0.4332 -0.8992
vn -0.1038 -0.0478 -0.9934
vn -0.7982 0.0401 -0.6011
vn -0.5860 0.8068 -0.0755
vn -0.0609 0.9830 -0.1729
vn -0.0289 0.8481 -0.5290
vn -0.4357 0.8019 -0.4088
vn -0.9955 0.0754 0.0573
vn -0.9559 0.2936 0.0035
vn -0.0132 0.8894 0.4570
vn -0.4431 0.8140 0.3756
vn -0.7987 -0.3218 0.5084
vn -0.0751 -0.4177 0.9055
vn -0.0954 -0.4084 -0.9078
vn -0.8056 -0.3174 -0.5003
vn -0.5753 -0.7551 -0.3142
vn -0.1005 -0.8420 -0.5300
vn -0.1130 -0.9922 -0.0525
vn -0.6781 -0.7301 0.0847
vn -0.9806 -0.1369 0.1406
vn -0.5582 -0.7676 0.3149
vn -0.0796 -0.8451 0.5287
vn -0.5696 0.8217 0.0184
vn -0.0658 0.9964 0.0535
vn -0.0949 0.9954 -0.0131
vn -0.5594 0.8285 -0.0250
vn -0.9550 0.2965 -0.0032
vn -0.9482 0.3173 -0.0148
vn -1.0000 0.0040 -0.0041
vn -0.9998 0.0177 -0.0091
vn -0.9607 -0.2777 0.0036
vn -0.9712 -0.2372 -0.0233
vn -0.6222 -0.7826 0.0203
vn -0.6436 -0.7654 -0.0040
vn -0.1318 -0.9909 0.0283
vn -0.1251 -0.9916 0.0334
vn -0.5839 0.8088 0.0697
vn -0.0253 0.9891 0.1453
vn -0.9615 0.2746 -0.0030
vn -0.9959 0.0728 -0.0546
vn -0.9820 -0.1328 -0.1341
vn -0.6722 -0.7366 -0.0746
vn -0.1020 -0.9924 0.0694
vn -0.0974 0.9932 -0.0639
vn -0.5674 0.8226 -0.0360
vn -0.9475 0.3198 -0.0052
vn -0.9998 0.0192 0.0086
vn -0.9705 -0.2395 0.0285
vn -0.6460 -0.7627 0.0307
vn -0.1282 -0.9917 0.0088
vn -0.0294 0.9968 0.0748
vn -0.0362 0.9993 -0.0003
vn -0.0358 0.9963 -0.0781
vn -0.0263 0.9743 -0.2236
vn -0.0176 0.8460 -0.5329
vn -0.0109 0.4743 -0.8803
vn -0.0048 -0.0329 -0.9994
vn -0.0008 -0.4491 -0.8935
vn 0.0068 -0.8617 -0.5074
vn 0.0177 -0.9977 -0.0661
vn 0.0290 -0.9996 0.0073
vn 0.0324 -0.9991 0.0257
vn 0.0244 -0.9990 0.0375
vn 0.0161 -0.9952 0.0964
vn 0.0147 -0.8560 0.5168
vn 0.0115 -0.4647 0.8854
vn 0.0056 -0.0399 0.9992
vn 0.0007 0.5641 0.8257
vn -0.0051 0.9055 0.4243
vn -0.0177 0.9812 0.1921
vn 0.8032 0.0362 0.5946
vn 0.7024 0.4502 0.5513
vn 0.0587 0.5054 0.8609
vn 0.1114 -0.0514 0.9924
vn 0.6656 0.4669 -0.5822
vn 0.7864 0.0520 -0.6155
vn 0.0938 -0.0406 -0.9948
vn 0.0521 0.4394 -0.8968
vn 0.5537 0.8204 -0.1425
vn 0.4144 0.8105 -0.4139
vn 0.0245 0.8445 -0.5350
vn 0.0406 0.9767 -0.2108
vn 0.9397 0.3392 -0.0441
vn 0.9959 0.0832 0.0351
vn 0.4128 0.8206 0.3953
vn -0.0066 0.8837 0.4679
vn 0.8012 -0.3215 0.5047
vn 0.0996 -0.4217 0.9012
vn 0.8014 -0.3078 -0.5128
vn 0.0925 -0.4010 -0.9114
vn 0.5922 -0.7470 -0.3021
vn 0.7028 -0.7046 0.0985
vn 0.1505 -0.9884 -0.0216
vn 0.1154 -0.8482 -0.5169
vn 0.9849 -0.1213 0.1237
vn 0.5779 -0.7497 0.3224
vn 0.1103 -0.8423 0.5276
vn 0.5609 0.8252 0.0665
vn 0.5536 0.8328 -0.0029
vn 0.0227 0.9997 -0.0001
vn 0.0211 0.9967 0.0783
vn 0.9546 0.2966 0.0291
vn 0.9560 0.2933 -0.0019
vn 0.9997 0.0242 -0.0007
vn 0.9993 0.0357 0.0110
vn 0.9747 -0.2234 0.0023
vn 0.9804 -0.1969 -0.0056
vn 0.6934 -0.7205 -0.0053
vn 0.6891 -0.7246 0.0126
vn 0.1861 -0.9823 0.0188
vn 0.2122 -0.9770 0.0209
vn 0.0025 0.9813 0.1926
vn 0.5737 0.8108 0.1160
vn 0.9575 0.2883 0.0115
vn 0.9957 0.0802 -0.0462
vn 0.9858 -0.1227 -0.1144
vn 0.6968 -0.7145 -0.0628
vn 0.1388 -0.9884 0.0619
vn 0.5552 0.8271 -0.0881
vn 0.0400 0.9950 -0.0919
vn 0.9489 0.3131 -0.0381
vn 0.9994 0.0323 -0.0087
vn 0.9801 -0.1983 0.0128
vn 0.6980 -0.7154 0.0311
vn 0.1955 -0.9805 0.0214
# 130 vertex normals

vt 0.8007 0.4831 0.0000
vt 0.7095 0.4867 0.0000
vt 0.7031 0.4561 0.0000
vt 0.7868 0.4532 0.0000
vt 0.7793 0.0428 0.0000
vt 0.6963 0.0388 0.0000
vt 0.7044 0.0081 0.0000
vt 0.7951 0.0127 0.0000
vt 0.7658 0.0880 0.0000
vt 0.6965 0.0914 0.0000
vt 0.6956 0.0611 0.0000
vt 0.7694 0.0612 0.0000
vt 0.8023 0.0519 0.0000
vt 0.8636 0.0480 0.0000
vt 0.8619 0.0708 0.0000
vt 0.8021 0.0767 0.0000
vt 0.7024 0.4340 0.0000
vt 0.7761 0.4344 0.0000
vt 0.2292 0.9554 0.0000
vt 0.3149 0.9517 0.0000
vt 0.3256 0.9914 0.0000
vt 0.2345 0.9881 0.0000
vt 0.2197 0.5131 0.0000
vt 0.3108 0.5089 0.0000
vt 0.3063 0.5495 0.0000
vt 0.2185 0.5464 0.0000
vt 0.2353 0.5660 0.0000
vt 0.3025 0.5665 0.0000
vt 0.3075 0.5884 0.0000
vt 0.2426 0.5861 0.0000
vt 0.1975 0.5599 0.0000
vt 0.1979 0.5798 0.0000
vt 0.1347 0.5788 0.0000
vt 0.1328 0.5564 0.0000
vt 0.2451 0.9361 0.0000
vt 0.3089 0.9345 0.0000
vt 0.7640 0.3432 0.0000
vt 0.7040 0.3404 0.0000
vt 0.6835 0.2553 0.0000
vt 0.7593 0.2556 0.0000
vt 0.8061 0.3509 0.0000
vt 0.8046 0.2557 0.0000
vt 0.8694 0.2549 0.0000
vt 0.8681 0.3546 0.0000
vt 0.2156 0.7594 0.0000
vt 0.2104 0.8550 0.0000
vt 0.1451 0.8582 0.0000
vt 0.1466 0.7606 0.0000
vt 0.2656 0.7582 0.0000
vt 0.2600 0.8471 0.0000
vt 0.3246 0.7576 0.0000
vt 0.3199 0.8432 0.0000
vt 0.7712 0.4085 0.0000
vt 0.7021 0.4044 0.0000
vt 0.8082 0.4202 0.0000
vt 0.8673 0.4256 0.0000
vt 0.2069 0.9249 0.0000
vt 0.1448 0.9277 0.0000
vt 0.2499 0.9162 0.0000
vt 0.3137 0.9118 0.0000
vt 0.6803 0.1654 0.0000
vt 0.7581 0.1619 0.0000
vt 0.8025 0.1545 0.0000
vt 0.8644 0.1490 0.0000
vt 0.2080 0.6570 0.0000
vt 0.1417 0.6561 0.0000
vt 0.2579 0.6622 0.0000
vt 0.3170 0.6639 0.0000
vt 0.5140 0.3412 0.0000
vt 0.5035 0.2552 0.0000
vt 0.5042 0.1646 0.0000
vt 0.5124 0.0894 0.0000
vt 0.5137 0.0609 0.0000
vt 0.5139 0.0387 0.0000
vt 0.5147 0.0060 0.0000
vt 0.5026 0.5043 0.0000
vt 0.5037 0.5411 0.0000
vt 0.5047 0.5645 0.0000
vt 0.5078 0.5867 0.0000
vt 0.5176 0.6621 0.0000
vt 0.5248 0.7556 0.0000
vt 0.5210 0.8403 0.0000
vt 0.5147 0.9088 0.0000
vt 0.5125 0.9320 0.0000
vt 0.5128 0.9558 0.0000
vt 0.5152 0.9948 0.0000
vt 0.5212 0.4857 0.0000
vt 0.5200 0.4552 0.0000
vt 0.5189 0.4327 0.0000
vt 0.5183 0.4045 0.0000
vt 0.8098 0.4438 0.0000
vt 0.8706 0.4471 0.0000
vt 0.2096 0.9438 0.0000
vt 0.1462 0.9488 0.0000
vt 0.2392 0.4820 0.0000
vt 0.2537 0.4523 0.0000
vt 0.3383 0.4555 0.0000
vt 0.3329 0.4857 0.0000
vt 0.2509 0.0444 0.0000
vt 0.2334 0.0142 0.0000
vt 0.3259 0.0087 0.0000
vt 0.3322 0.0396 0.0000
vt 0.2655 0.0900 0.0000
vt 0.2620 0.0632 0.0000
vt 0.3345 0.0622 0.0000
vt 0.3319 0.0923 0.0000
vt 0.2306 0.0525 0.0000
vt 0.2317 0.0769 0.0000
vt 0.1717 0.0689 0.0000
vt 0.1697 0.0459 0.0000
vt 0.2632 0.4339 0.0000
vt 0.3379 0.4337 0.0000
vt 0.7972 0.9497 0.0000
vt 0.7981 0.9825 0.0000
vt 0.7048 0.9883 0.0000
vt 0.7116 0.9474 0.0000
vt 0.7862 0.5075 0.0000
vt 0.7874 0.5412 0.0000
vt 0.6998 0.5452 0.0000
vt 0.6933 0.5051 0.0000
vt 0.7718 0.5610 0.0000
vt 0.7677 0.5812 0.0000
vt 0.7050 0.5845 0.0000
vt 0.7061 0.5627 0.0000
vt 0.8092 0.5547 0.0000
vt 0.8744 0.5503 0.0000
vt 0.8766 0.5729 0.0000
vt 0.8126 0.5744 0.0000
vt 0.7798 0.9306 0.0000
vt 0.7160 0.9305 0.0000
vt 0.2706 0.3425 0.0000
vt 0.2695 0.2564 0.0000
vt 0.3275 0.2556 0.0000
vt 0.3269 0.3403 0.0000
vt 0.2292 0.3507 0.0000
vt 0.2269 0.2566 0.0000
vt 0.1603 0.2562 0.0000
vt 0.1676 0.3559 0.0000
vt 0.8148 0.7544 0.0000
vt 0.8851 0.7549 0.0000
vt 0.8837 0.8515 0.0000
vt 0.8179 0.8490 0.0000
vt 0.7684 0.8419 0.0000
vt 0.7656 0.7539 0.0000
vt 0.7148 0.8392 0.0000
vt 0.7148 0.7542 0.0000
vt 0.3351 0.4040 0.0000
vt 0.2666 0.4079 0.0000
vt 0.2312 0.4202 0.0000
vt 0.1732 0.4272 0.0000
vt 0.8812 0.9213 0.0000
vt 0.8189 0.9188 0.0000
vt 0.7752 0.9107 0.0000
vt 0.7129 0.9076 0.0000
vt 0.2698 0.1619 0.0000
vt 0.3313 0.1639 0.0000
vt 0.2283 0.1540 0.0000
vt 0.1650 0.1482 0.0000
vt 0.8133 0.6521 0.0000
vt 0.8809 0.6503 0.0000
vt 0.7635 0.6578 0.0000
vt 0.7103 0.6604 0.0000
vt 0.2314 0.4441 0.0000
vt 0.1715 0.4491 0.0000
vt 0.8796 0.9430 0.0000
vt 0.8162 0.9378 0.0000
# 166 texture coords

g CementBagLow_polySurface1
usemtl 01___Default
s off
f 1/1/1 2/2/2 3/3/3 
f 3/3/3 4/4/4 1/1/1 
f 5/5/5 6/6/6 7/7/7 
f 7/7/7 8/8/8 5/5/5 
f 9/9/9 10/10/10 11/11/11 
f 11/11/11 12/12/12 9/9/9 
f 5/13/5 8/14/8 13/15/13 
f 13/15/13 14/16/14 5/13/5 
f 12/12/12 11/11/11 6/6/6 
f 6/6/6 5/5/5 12/12/12 
f 4/4/4 3/3/3 15/17/15 
f 15/17/15 16/18/16 4/4/4 
f 14/16/14 9/9/9 12/12/12 
f 12/12/12 5/13/5 14/16/14 
f 17/19/17 18/20/18 2/21/2 
f 2/21/2 1/22/1 17/19/17 
f 8/23/8 7/24/7 19/25/19 
f 19/25/19 20/26/20 8/23/8 
f 21/27/21 22/28/22 23/29/23 
f 23/29/23 24/30/24 21/27/21 
f 20/31/20 25/32/25 13/33/13 
f 13/33/13 8/34/8 20/31/20 
f 20/26/20 19/25/19 22/28/22 
f 22/28/22 21/27/21 20/26/20 
f 26/35/26 27/36/27 18/20/18 
f 18/20/18 17/19/17 26/35/26 
f 25/32/25 20/31/20 21/27/21 
f 21/27/21 24/30/24 25/32/25 
f 28/37/28 29/38/29 30/39/30 
f 30/39/30 31/40/31 28/37/28 
f 32/41/32 28/37/28 31/40/31 
f 31/40/31 33/42/33 32/41/32 
f 34/43/34 35/44/35 32/41/32 
f 32/41/32 33/42/33 34/43/34 
f 36/45/36 37/46/37 35/47/35 
f 35/47/35 34/48/34 36/45/36 
f 37/46/37 36/45/36 38/49/38 
f 38/49/38 39/50/39 37/46/37 
f 38/49/38 40/51/40 41/52/41 
f 41/52/41 39/50/39 38/49/38 
f 29/38/29 28/37/28 42/53/42 
f 42/53/42 43/54/43 29/38/29 
f 44/55/44 42/53/42 28/37/28 
f 28/37/28 32/41/32 44/55/44 
f 35/44/35 45/56/45 44/55/44 
f 44/55/44 32/41/32 35/44/35 
f 37/46/37 46/57/46 45/58/45 
f 45/58/45 35/47/35 37/46/37 
f 46/57/46 37/46/37 39/50/39 
f 39/50/39 47/59/47 46/57/46 
f 39/50/39 41/52/41 48/60/48 
f 48/60/48 47/59/47 39/50/39 
f 31/40/31 30/39/30 49/61/49 
f 49/61/49 50/62/50 31/40/31 
f 33/42/33 31/40/31 50/62/50 
f 50/62/50 51/63/51 33/42/33 
f 52/64/52 34/43/34 33/42/33 
f 33/42/33 51/63/51 52/64/52 
f 53/65/53 36/45/36 34/48/34 
f 34/48/34 52/66/52 53/65/53 
f 36/45/36 53/65/53 54/67/54 
f 54/67/54 38/49/38 36/45/36 
f 54/67/54 55/68/55 40/51/40 
f 40/51/40 38/49/38 54/67/54 
f 29/38/29 56/69/56 57/70/57 
f 57/70/57 30/39/30 29/38/29 
f 30/39/30 57/70/57 58/71/58 
f 58/71/58 49/61/49 30/39/30 
f 59/72/59 60/73/60 11/11/11 
f 11/11/11 10/10/10 59/72/59 
f 11/11/11 60/73/60 61/74/61 
f 61/74/61 6/6/6 11/11/11 
f 6/6/6 61/74/61 62/75/62 
f 62/75/62 7/7/7 6/6/6 
f 7/24/7 62/76/62 63/77/63 
f 63/77/63 19/25/19 7/24/7 
f 19/25/19 63/77/63 64/78/64 
f 64/78/64 22/28/22 19/25/19 
f 22/28/22 64/78/64 65/79/65 
f 65/79/65 23/29/23 22/28/22 
f 55/68/55 66/80/66 67/81/67 
f 67/81/67 40/51/40 55/68/55 
f 40/51/40 67/81/67 68/82/68 
f 68/82/68 41/52/41 40/51/40 
f 41/52/41 68/82/68 69/83/69 
f 69/83/69 48/60/48 41/52/41 
f 27/36/27 70/84/70 71/85/71 
f 71/85/71 18/20/18 27/36/27 
f 18/20/18 71/85/71 72/86/72 
f 72/86/72 2/21/2 18/20/18 
f 2/2/2 72/87/72 73/88/73 
f 73/88/73 3/3/3 2/2/2 
f 3/3/3 73/88/73 74/89/74 
f 74/89/74 15/17/15 3/3/3 
f 56/69/56 29/38/29 43/54/43 
f 43/54/43 75/90/75 56/69/56 
f 4/91/4 16/18/16 42/53/42 
f 42/53/42 44/55/44 4/91/4 
f 45/56/45 1/92/1 4/91/4 
f 4/91/4 44/55/44 45/56/45 
f 46/57/46 17/93/17 1/94/1 
f 1/94/1 45/58/45 46/57/46 
f 17/93/17 46/57/46 47/59/47 
f 47/59/47 26/35/26 17/93/17 
f 48/60/48 27/36/27 26/35/26 
f 26/35/26 47/59/47 48/60/48 
f 69/83/69 70/84/70 27/36/27 
f 27/36/27 48/60/48 69/83/69 
f 43/54/43 15/17/15 74/89/74 
f 74/89/74 75/90/75 43/54/43 
f 42/53/42 16/18/16 15/17/15 
f 15/17/15 43/54/43 42/53/42 
f 50/62/50 49/61/49 10/10/10 
f 10/10/10 9/9/9 50/62/50 
f 51/63/51 50/62/50 9/9/9 
f 9/9/9 14/16/14 51/63/51 
f 13/15/13 52/64/52 51/63/51 
f 51/63/51 14/16/14 13/15/13 
f 25/32/25 53/65/53 52/66/52 
f 52/66/52 13/33/13 25/32/25 
f 53/65/53 25/32/25 24/30/24 
f 24/30/24 54/67/54 53/65/53 
f 23/29/23 55/68/55 54/67/54 
f 54/67/54 24/30/24 23/29/23 
f 65/79/65 66/80/66 55/68/55 
f 55/68/55 23/29/23 65/79/65 
f 49/61/49 58/71/58 59/72/59 
f 59/72/59 10/10/10 49/61/49 
f 76/95/76 77/96/77 78/97/78 
f 78/97/78 79/98/79 76/95/76 
f 80/99/80 81/100/81 82/101/82 
f 82/101/82 83/102/83 80/99/80 
f 84/103/84 85/104/85 86/105/86 
f 86/105/86 87/106/87 84/103/84 
f 80/107/80 88/108/88 89/109/89 
f 89/109/89 81/110/81 80/107/80 
f 85/104/85 80/99/80 83/102/83 
f 83/102/83 86/105/86 85/104/85 
f 77/96/77 90/111/90 91/112/91 
f 91/112/91 78/97/78 77/96/77 
f 88/108/88 80/107/80 85/104/85 
f 85/104/85 84/103/84 88/108/88 
f 92/113/92 76/114/76 79/115/79 
f 79/115/79 93/116/93 92/113/92 
f 81/117/81 94/118/94 95/119/95 
f 95/119/95 82/120/82 81/117/81 
f 96/121/96 97/122/97 98/123/98 
f 98/123/98 99/124/99 96/121/96 
f 94/125/94 81/126/81 89/127/89 
f 89/127/89 100/128/100 94/125/94 
f 94/118/94 96/121/96 99/124/99 
f 99/124/99 95/119/95 94/118/94 
f 101/129/101 92/113/92 93/116/93 
f 93/116/93 102/130/102 101/129/101 
f 100/128/100 97/122/97 96/121/96 
f 96/121/96 94/125/94 100/128/100 
f 103/131/103 104/132/104 105/133/105 
f 105/133/105 106/134/106 103/131/103 
f 107/135/107 108/136/108 104/132/104 
f 104/132/104 103/131/103 107/135/107 
f 109/137/109 108/136/108 107/135/107 
f 107/135/107 110/138/110 109/137/109 
f 111/139/111 109/140/109 110/141/110 
f 110/141/110 112/142/112 111/139/111 
f 112/142/112 113/143/113 114/144/114 
f 114/144/114 111/139/111 112/142/112 
f 114/144/114 113/143/113 115/145/115 
f 115/145/115 116/146/116 114/144/114 
f 106/134/106 117/147/117 118/148/118 
f 118/148/118 103/131/103 106/134/106 
f 119/149/119 107/135/107 103/131/103 
f 103/131/103 118/148/118 119/149/119 
f 110/138/110 107/135/107 119/149/119 
f 119/149/119 120/150/120 110/138/110 
f 112/142/112 110/141/110 120/151/120 
f 120/151/120 121/152/121 112/142/112 
f 121/152/121 122/153/122 113/143/113 
f 113/143/113 112/142/112 121/152/121 
f 113/143/113 122/153/122 123/154/123 
f 123/154/123 115/145/115 113/143/113 
f 104/132/104 124/155/124 125/156/125 
f 125/156/125 105/133/105 104/132/104 
f 108/136/108 126/157/126 124/155/124 
f 124/155/124 104/132/104 108/136/108 
f 127/158/127 126/157/126 108/136/108 
f 108/136/108 109/137/109 127/158/127 
f 128/159/128 127/160/127 109/140/109 
f 109/140/109 111/139/111 128/159/128 
f 111/139/111 114/144/114 129/161/129 
f 129/161/129 128/159/128 111/139/111 
f 129/161/129 114/144/114 116/146/116 
f 116/146/116 130/162/130 129/161/129 
f 106/134/106 105/133/105 57/70/57 
f 57/70/57 56/69/56 106/134/106 
f 105/133/105 125/156/125 58/71/58 
f 58/71/58 57/70/57 105/133/105 
f 59/72/59 87/106/87 86/105/86 
f 86/105/86 60/73/60 59/72/59 
f 86/105/86 83/102/83 61/74/61 
f 61/74/61 60/73/60 86/105/86 
f 83/102/83 82/101/82 62/75/62 
f 62/75/62 61/74/61 83/102/83 
f 82/120/82 95/119/95 63/77/63 
f 63/77/63 62/76/62 82/120/82 
f 95/119/95 99/124/99 64/78/64 
f 64/78/64 63/77/63 95/119/95 
f 99/124/99 98/123/98 65/79/65 
f 65/79/65 64/78/64 99/124/99 
f 130/162/130 116/146/116 67/81/67 
f 67/81/67 66/80/66 130/162/130 
f 116/146/116 115/145/115 68/82/68 
f 68/82/68 67/81/67 116/146/116 
f 115/145/115 123/154/123 69/83/69 
f 69/83/69 68/82/68 115/145/115 
f 102/130/102 93/116/93 71/85/71 
f 71/85/71 70/84/70 102/130/102 
f 93/116/93 79/115/79 72/86/72 
f 72/86/72 71/85/71 93/116/93 
f 79/98/79 78/97/78 73/88/73 
f 73/88/73 72/87/72 79/98/79 
f 78/97/78 91/112/91 74/89/74 
f 74/89/74 73/88/73 78/97/78 
f 56/69/56 75/90/75 117/147/117 
f 117/147/117 106/134/106 56/69/56 
f 77/163/77 119/149/119 118/148/118 
f 118/148/118 90/111/90 77/163/77 
f 120/150/120 119/149/119 77/163/77 
f 77/163/77 76/164/76 120/150/120 
f 121/152/121 120/151/120 76/165/76 
f 76/165/76 92/166/92 121/152/121 
f 92/166/92 101/129/101 122/153/122 
f 122/153/122 121/152/121 92/166/92 
f 123/154/123 122/153/122 101/129/101 
f 101/129/101 102/130/102 123/154/123 
f 69/83/69 123/154/123 102/130/102 
f 102/130/102 70/84/70 69/83/69 
f 117/147/117 75/90/75 74/89/74 
f 74/89/74 91/112/91 117/147/117 
f 118/148/118 117/147/117 91/112/91 
f 91/112/91 90/111/90 118/148/118 
f 124/155/124 84/103/84 87/106/87 
f 87/106/87 125/156/125 124/155/124 
f 126/157/126 88/108/88 84/103/84 
f 84/103/84 124/155/124 126/157/126 
f 89/109/89 88/108/88 126/157/126 
f 126/157/126 127/158/127 89/109/89 
f 100/128/100 89/127/89 127/160/127 
f 127/160/127 128/159/128 100/128/100 
f 128/159/128 129/161/129 97/122/97 
f 97/122/97 100/128/100 128/159/128 
f 98/123/98 97/122/97 129/161/129 
f 129/161/129 130/162/130 98/123/98 
f 65/79/65 98/123/98 130/162/130 
f 130/162/130 66/80/66 65/79/65 
f 125/156/125 87/106/87 59/72/59 
f 59/72/59 58/71/58 125/156/125 
# 256 faces

